<svg width="24" height="24" viewBox="0 0 24 24" fill="none" xmlns="http://www.w3.org/2000/svg">
<path fill-rule="evenodd" clip-rule="evenodd" d="M13.3625 17.0002C13.1005 17.0002 12.8395 16.8982 12.6435 16.6952L8.78053 12.6953C8.40253 12.3022 8.40753 11.6793 8.79353 11.2933L12.7935 7.29325C13.1835 6.90225 13.8165 6.90225 14.2075 7.29325C14.5975 7.68425 14.5975 8.31625 14.2075 8.70725L10.9025 12.0122L14.0815 15.3053C14.4655 15.7032 14.4545 16.3362 14.0575 16.7192C13.8625 16.9072 13.6125 17.0002 13.3625 17.0002Z" fill="#231F20"/>
<mask id="mask0" mask-type="alpha" maskUnits="userSpaceOnUse" x="8" y="7" width="7" height="11">
<path fill-rule="evenodd" clip-rule="evenodd" d="M13.3625 17.0002C13.1005 17.0002 12.8395 16.8982 12.6435 16.6952L8.78053 12.6953C8.40253 12.3022 8.40753 11.6793 8.79353 11.2933L12.7935 7.29325C13.1835 6.90225 13.8165 6.90225 14.2075 7.29325C14.5975 7.68425 14.5975 8.31625 14.2075 8.70725L10.9025 12.0122L14.0815 15.3053C14.4655 15.7032 14.4545 16.3362 14.0575 16.7192C13.8625 16.9072 13.6125 17.0002 13.3625 17.0002Z" fill="white"/>
</mask>
</svg>
