<svg width="140" height="39" fill="none" xmlns="http://www.w3.org/2000/svg"><g clip-path="url(#clip0)"><path d="M53.504 36.958v.594h-2.855v-3.807h2.786v.592h-2.079v.99h1.838v.582h-1.838v1.049h2.148zM59.849 33.745v3.807h-.576l-2.1-2.579v2.579h-.7v-3.807h.586l2.097 2.577v-2.577h.693zM65.644 35.605h.674v1.516c-.204.16-.436.282-.684.358-.26.084-.532.127-.805.127a2.161 2.161 0 01-1.05-.254 1.874 1.874 0 01-.734-.698 2.035 2.035 0 010-2.013 1.85 1.85 0 01.737-.699c.325-.172.689-.259 1.057-.253.297-.005.592.049.87.157.252.1.478.258.657.463l-.444.434a1.43 1.43 0 00-1.05-.434 1.484 1.484 0 00-.716.169 1.228 1.228 0 00-.489.473 1.45 1.45 0 000 1.38c.117.201.286.366.49.478.217.119.462.18.71.175.274.004.545-.066.783-.201l-.006-1.178zM74.732 36.207v1.345h-.706v-1.333l-1.496-2.474h.757L74.4 35.6l1.127-1.854h.695l-1.49 2.462zM81.1 36.67H79.2l-.374.882h-.729l1.713-3.807h.697l1.717 3.807h-.74l-.385-.882zm-.234-.554l-.719-1.664-.712 1.664h1.431zM87.084 37.552l-1.033-1.448-1.022 1.448h-.805l1.409-1.943-1.339-1.864h.805l.974 1.355.963-1.355h.767l-1.333 1.838 1.43 1.969h-.816zM90.886 37.48a1.763 1.763 0 01-.648-.331l.244-.55c.173.132.367.234.573.302.22.077.45.117.683.117.22.014.44-.033.634-.137a.402.402 0 00.201-.358.353.353 0 00-.116-.27.83.83 0 00-.298-.165 6.149 6.149 0 00-.49-.135 6.021 6.021 0 01-.702-.201 1.145 1.145 0 01-.463-.324.87.87 0 01-.201-.604 1.006 1.006 0 01.17-.572c.13-.181.31-.321.518-.402.268-.11.556-.162.846-.153.23 0 .46.028.684.086.207.05.403.135.582.25l-.224.55a2.236 2.236 0 00-.521-.222 1.89 1.89 0 00-.528-.076 1.094 1.094 0 00-.621.14.435.435 0 00-.172.522c.02.046.05.087.089.12a.83.83 0 00.296.164c.119.038.282.084.489.134.236.052.468.12.695.202.178.07.337.18.465.324.138.163.21.373.2.588a.995.995 0 01-.17.57c-.131.18-.311.32-.52.402a2.12 2.12 0 01-.847.153 2.872 2.872 0 01-.847-.125zM99.532 33.745v3.807h-.707v-1.633h-1.969v1.633h-.706v-3.807h.706v1.582h1.97v-1.572l.706-.01zM102.73 33.745h.707v3.807h-.707v-3.807zM110.641 37.48a1.783 1.783 0 01-.648-.331l.244-.55c.173.132.367.234.573.302.22.077.45.117.683.117.22.014.439-.033.634-.137a.405.405 0 00.172-.506.347.347 0 00-.088-.122.826.826 0 00-.297-.165 6.14 6.14 0 00-.49-.135 6.03 6.03 0 01-.702-.201 1.157 1.157 0 01-.463-.324.868.868 0 01-.201-.604 1.012 1.012 0 01.171-.572c.13-.18.309-.32.517-.402.268-.11.556-.162.845-.153.231 0 .461.028.685.086.206.05.403.135.582.25l-.224.55a2.196 2.196 0 00-.521-.222 1.89 1.89 0 00-.528-.076 1.095 1.095 0 00-.622.14.43.43 0 00-.172.521.34.34 0 00.088.122c.086.074.187.13.296.163.119.038.282.084.489.134.236.052.469.12.696.202.179.07.338.18.465.324.138.164.21.373.202.588.002.203-.058.401-.171.57-.13.182-.311.322-.52.402-.269.108-.557.16-.847.153a2.879 2.879 0 01-.848-.125zM115.907 33.745h.707v3.807h-.707v-3.807zM120.523 34.337v1.16h1.838v.603h-1.838v1.458h-.707v-3.813h2.778v.592h-2.071zM127.757 36.67h-1.902l-.374.882h-.729l1.713-3.807h.694l1.719 3.807h-.738l-.383-.882zm-.233-.554l-.717-1.664-.712 1.664h1.429zM132.117 34.343h-1.26v-.604h3.221v.604h-1.26v3.208h-.709l.008-3.208z" fill="#C09372"/><path d="M62.562 7.621c1.152.723 1.727 1.884 1.725 3.482a2.707 2.707 0 01-.688 1.923 2.442 2.442 0 01-1.874.74c-.768 0-1.337-.175-1.71-.527a4.786 4.786 0 00.264-1.642c0-1.929-.854-2.893-2.564-2.893-.83 0-1.482.201-1.955.604-.472.403-.707 1-.706 1.792a3.623 3.623 0 00.557 1.972c.378.597.85 1.13 1.397 1.576.56.462 1.322 1.02 2.285 1.677a28.371 28.371 0 012.744 2.053 8.348 8.348 0 011.757 2.17c.495.889.745 1.892.725 2.909 0 1.948-.671 3.46-2.013 4.533-1.342 1.074-3.073 1.61-5.194 1.61-1.925 0-3.519-.388-4.78-1.165-1.262-.777-1.892-1.985-1.89-3.623a2.71 2.71 0 01.69-1.923 2.395 2.395 0 011.84-.738c.766 0 1.336.175 1.709.525a5.032 5.032 0 00-.23 1.643c0 2.08.986 3.122 2.957 3.122.964 0 1.753-.269 2.367-.806a2.761 2.761 0 00.92-2.186 3.623 3.623 0 00-.56-1.97A6.57 6.57 0 0058.94 20.9c-.557-.46-1.318-1.018-2.283-1.675a28.019 28.019 0 01-2.743-2.055 8.356 8.356 0 01-1.752-2.174 5.77 5.77 0 01-.722-2.91c0-1.752.618-3.116 1.856-4.091 1.237-.976 2.809-1.463 4.716-1.462 1.884.006 3.401.368 4.551 1.087zM79.7 7.192l5.618 21.694h-3.876l-1.315-5.52h-6.441l-1.28 5.52h-3.624l6.013-21.69 4.905-.004zM74.278 20.93h5.29L76.905 9.656 74.277 20.93zm27.307-13.737v2.434h-7.164v7.36h6.18v2.44h-6.18v9.46h-3.845V7.192h11.009zm9.827 0v21.694h-3.847V7.192h3.847zm20.061 9.761a5.558 5.558 0 01-3.106 2.136l5.719 9.797h-4.207l-5.85-10.385a1.387 1.387 0 01-.201-.656c1.642 0 2.858-.367 3.647-1.101.789-.734 1.183-1.89 1.182-3.466 0-1.316-.336-2.296-1.007-2.941-.67-.646-1.691-.971-3.061-.977-.705.002-1.408.057-2.104.165v19.36h-3.844V7.326c2.584-.174 4.643-.262 6.177-.263 5.194 0 7.79 2.026 7.788 6.079 0 1.492-.377 2.763-1.133 3.812z" fill="#1E1E1E"/><path d="M29.93 26.873a5.048 5.048 0 01-10.096 0h-6.102a11.15 11.15 0 0022.3 0H29.93z" fill="#C09372"/><path d="M24.884 22.3c6.158 0 11.15-4.992 11.15-11.15S31.042 0 24.884 0s-11.15 4.992-11.15 11.15 4.992 11.15 11.15 11.15z" fill="#8BCC40"/><path d="M0 0a9.155 9.155 0 019.155 9.155v28.873A9.155 9.155 0 010 28.875V0z" fill="#1E1E1E"/></g><defs><clipPath id="clip0"><path fill="#fff" d="M0 0h140v38.029H0z"/></clipPath></defs></svg>
