<svg width="135" height="39" fill="none" xmlns="http://www.w3.org/2000/svg"><path d="M62.562 7.621c1.152.723 1.727 1.884 1.725 3.482a2.707 2.707 0 01-.688 1.923 2.442 2.442 0 01-1.874.74c-.768 0-1.337-.175-1.71-.527a4.786 4.786 0 00.264-1.642c0-1.929-.854-2.893-2.564-2.893-.83 0-1.482.201-1.955.604-.472.403-.707 1-.706 1.792a3.623 3.623 0 00.557 1.972c.378.597.85 1.13 1.397 1.576.56.462 1.322 1.02 2.285 1.677a28.371 28.371 0 012.744 2.053 8.348 8.348 0 011.757 2.17c.495.889.745 1.892.725 2.909 0 1.948-.671 3.46-2.013 4.533-1.342 1.074-3.073 1.61-5.194 1.61-1.925 0-3.519-.388-4.78-1.165-1.262-.777-1.892-1.985-1.89-3.623a2.71 2.71 0 01.69-1.923 2.395 2.395 0 011.84-.738c.766 0 1.336.175 1.709.525a5.032 5.032 0 00-.23 1.643c0 2.08.986 3.122 2.957 3.122.964 0 1.753-.269 2.367-.806a2.761 2.761 0 00.92-2.186 3.623 3.623 0 00-.56-1.97A6.57 6.57 0 0058.94 20.9c-.557-.46-1.318-1.018-2.283-1.675a28.019 28.019 0 01-2.743-2.055 8.356 8.356 0 01-1.752-2.174 5.77 5.77 0 01-.722-2.91c0-1.752.618-3.116 1.856-4.091 1.237-.976 2.809-1.463 4.716-1.462 1.884.006 3.401.368 4.551 1.087zM79.7 7.192l5.618 21.694h-3.876l-1.315-5.52h-6.441l-1.28 5.52h-3.624l6.013-21.69 4.905-.004zM74.278 20.93h5.29L76.905 9.656 74.277 20.93zm27.307-13.737v2.434h-7.164v7.36h6.18v2.44h-6.18v9.46h-3.845V7.192h11.009zm9.827 0v21.694h-3.847V7.192h3.847zm20.061 9.761a5.558 5.558 0 01-3.106 2.136l5.719 9.797h-4.207l-5.85-10.385a1.387 1.387 0 01-.201-.656c1.642 0 2.858-.367 3.647-1.101.789-.734 1.183-1.89 1.182-3.466 0-1.316-.336-2.296-1.007-2.941-.67-.646-1.691-.971-3.061-.977-.705.002-1.408.057-2.104.165v19.36h-3.844V7.326c2.584-.174 4.643-.262 6.177-.263 5.194 0 7.79 2.026 7.788 6.079 0 1.492-.377 2.763-1.133 3.812z" fill="#1E1E1E"/><path d="M29.93 27a5.048 5.048 0 01-10.096 0h-6.102a11.15 11.15 0 0022.3 0H29.93z" fill="#C09372"/><path d="M24.884 22.3c6.158 0 11.15-4.992 11.15-11.15S31.042 0 24.884 0s-11.15 4.992-11.15 11.15 4.992 11.15 11.15 11.15z" fill="#8BCC40"/><path d="M0 0a9.155 9.155 0 019.155 9.155v28.873A9.155 9.155 0 010 28.875V0z" fill="#1E1E1E"/><path d="M51 34.046h1.472c.36 0 .678.068.957.204a1.51 1.51 0 01.88 1.419c0 .321-.076.605-.23.852a1.55 1.55 0 01-.65.57 2.2 2.2 0 01-.957.2H51v-3.245zm1.443 2.735c.247 0 .464-.045.65-.134.189-.093.333-.223.432-.39.103-.17.154-.366.154-.588 0-.223-.05-.418-.154-.584a.966.966 0 00-.432-.39 1.438 1.438 0 00-.65-.139h-.818v2.225h.818zM56.547 37.337c-.343 0-.652-.07-.928-.213a1.608 1.608 0 01-.885-1.455 1.61 1.61 0 01.885-1.45c.276-.146.585-.219.928-.219.343 0 .653.073.929.218a1.594 1.594 0 01.885 1.45c0 .319-.079.605-.236.858a1.653 1.653 0 01-.65.598 1.997 1.997 0 01-.928.213zm0-.528c.225 0 .427-.048.606-.144a1.098 1.098 0 00.578-.996c0-.217-.052-.411-.154-.584a1.056 1.056 0 00-.424-.408 1.235 1.235 0 00-.606-.149c-.224 0-.426.05-.606.149-.18.096-.32.231-.423.408a1.122 1.122 0 00-.154.584 1.098 1.098 0 00.577.997c.18.095.382.143.606.143zM62.016 34.046v3.245H61.5l-1.857-2.197v2.197h-.62v-3.245h.514l1.857 2.197v-2.197h.62zM66.633 35.604a.883.883 0 01.443.296c.109.136.163.306.163.51a.748.748 0 01-.336.654c-.225.151-.552.227-.982.227h-1.674v-3.245h1.578c.398 0 .704.076.919.227a.708.708 0 01.322.617.79.79 0 01-.115.426.78.78 0 01-.318.288zm-1.76-1.085v.895h.885c.218 0 .385-.037.5-.112a.374.374 0 00.178-.333c0-.149-.06-.26-.178-.334-.115-.077-.282-.116-.5-.116h-.885zm1.01 2.3c.484 0 .726-.157.726-.47 0-.311-.242-.467-.726-.467h-1.01v.936h1.01zM67.907 34.046h.625v3.245h-.625v-3.245zM69.443 34.046h.625v2.735h1.76v.51h-2.385v-3.245zM74.53 36.54h-1.684l-.332.75h-.644l1.515-3.244h.616l1.52 3.245h-.654l-.337-.751zm-.207-.473l-.635-1.418-.63 1.418h1.265zM78.941 34.046v3.245h-.514l-1.857-2.197v2.197h-.62v-3.245h.514l1.857 2.197v-2.197h.62zM81.173 34.046h1.472c.359 0 .678.068.957.204a1.51 1.51 0 01.88 1.419c0 .321-.076.605-.23.852a1.55 1.55 0 01-.65.57 2.2 2.2 0 01-.957.2h-1.472v-3.245zm1.443 2.735c.247 0 .463-.045.65-.134.189-.093.333-.223.432-.39.103-.17.154-.366.154-.588 0-.223-.051-.418-.154-.584a.966.966 0 00-.433-.39 1.438 1.438 0 00-.649-.139h-.818v2.225h.818zM86.72 37.337c-.343 0-.653-.07-.928-.213a1.608 1.608 0 01-.885-1.455 1.61 1.61 0 01.885-1.45c.275-.146.585-.219.928-.219.343 0 .653.073.928.218a1.594 1.594 0 01.885 1.45c0 .319-.078.605-.235.858a1.654 1.654 0 01-.65.598 1.997 1.997 0 01-.928.213zm0-.528c.225 0 .427-.048.606-.144a1.098 1.098 0 00.577-.996c0-.217-.05-.411-.154-.584a1.056 1.056 0 00-.423-.408 1.235 1.235 0 00-.606-.149c-.224 0-.426.05-.606.149-.18.096-.32.231-.423.408a1.122 1.122 0 00-.154.584 1.098 1.098 0 00.577.997c.18.095.382.143.606.143zM92.189 34.046v3.245h-.515l-1.857-2.197v2.197h-.62v-3.245h.514l1.857 2.197v-2.197h.62zM96.083 34.046v3.245h-.515l-1.857-2.197v2.197h-.62v-3.245h.515l1.856 2.197v-2.197h.62zM96.985 34.046h.626v3.245h-.626v-3.245zM101.513 34.046v3.245h-.514l-1.857-2.197v2.197h-.62v-3.245h.514l1.857 2.197v-2.197h.62zM104.715 35.632h.592v1.293a1.924 1.924 0 01-.606.306 2.41 2.41 0 01-.712.106c-.344 0-.653-.07-.929-.213a1.65 1.65 0 01-.649-.598 1.595 1.595 0 01-.236-.857 1.595 1.595 0 01.885-1.451c.279-.145.592-.218.938-.218.282 0 .539.045.77.134.231.09.425.221.582.394l-.395.371a1.288 1.288 0 00-.928-.37c-.237 0-.449.047-.635.143-.183.096-.327.23-.433.403-.102.173-.154.371-.154.594 0 .216.052.41.154.584.106.173.25.309.433.407.186.1.396.149.63.149.263 0 .494-.056.693-.167v-1.01zM108.086 34.552v.987h1.626v.51h-1.626v1.242h-.625v-3.245h2.458v.506h-1.833zM112.562 36.54h-1.684l-.332.75h-.644l1.515-3.244h.616l1.52 3.245h-.654l-.337-.751zm-.207-.473l-.635-1.418-.63 1.418h1.265zM116.184 37.29l-.688-.95a1.307 1.307 0 01-.129.005h-.761v.946h-.625v-3.245h1.386c.291 0 .545.047.76.14.218.092.384.225.5.398.115.173.173.378.173.616 0 .245-.063.455-.188.63a1.078 1.078 0 01-.529.395l.775 1.066h-.674zm-.014-2.09c0-.207-.071-.366-.212-.477-.141-.111-.348-.167-.62-.167h-.732v1.293h.732c.272 0 .479-.055.62-.166a.586.586 0 00.212-.483zM121.055 37.615a1.113 1.113 0 01-.395.288 1.19 1.19 0 01-.486.097c-.231 0-.442-.051-.635-.153-.192-.099-.412-.272-.659-.52a1.893 1.893 0 01-.837-.259 1.638 1.638 0 01-.577-.588 1.62 1.62 0 01-.207-.811 1.607 1.607 0 01.885-1.45c.276-.146.586-.219.929-.219.343 0 .652.073.928.218.276.142.492.34.649.593.158.254.236.54.236.858a1.619 1.619 0 01-.601 1.27 1.794 1.794 0 01-.659.329.989.989 0 00.274.208c.09.044.186.065.289.065a.77.77 0 00.577-.26l.289.334zm-3.166-1.946a1.1 1.1 0 00.578.997c.179.095.381.143.606.143.224 0 .426-.048.606-.144a1.104 1.104 0 00.577-.996 1.12 1.12 0 00-.154-.584 1.062 1.062 0 00-.423-.408 1.237 1.237 0 00-.606-.149c-.225 0-.427.05-.606.149-.18.096-.321.231-.424.408a1.129 1.129 0 00-.154.584zM121.549 34.046h.625v3.245h-.625v-3.245zM126.801 35.604a.882.882 0 01.442.296.79.79 0 01.164.51.749.749 0 01-.337.654c-.225.151-.552.227-.981.227h-1.674v-3.245h1.577c.398 0 .704.076.919.227a.708.708 0 01.322.617.79.79 0 01-.115.426.783.783 0 01-.317.288zm-1.761-1.085v.895h.885c.218 0 .385-.037.5-.112a.374.374 0 00.178-.333.367.367 0 00-.178-.334c-.115-.077-.282-.116-.5-.116h-.885zm1.01 2.3c.484 0 .726-.157.726-.47 0-.311-.242-.467-.726-.467h-1.01v.936h1.01zM129.647 37.337c-.343 0-.653-.07-.928-.213a1.653 1.653 0 01-.65-.598 1.61 1.61 0 01-.235-.857 1.61 1.61 0 01.885-1.45c.275-.146.585-.219.928-.219.343 0 .653.073.928.218a1.595 1.595 0 01.886 1.45c0 .319-.079.605-.236.858a1.653 1.653 0 01-.65.598 1.993 1.993 0 01-.928.213zm0-.528c.225 0 .427-.048.606-.144a1.09 1.09 0 00.423-.408c.103-.176.154-.372.154-.588a1.12 1.12 0 00-.154-.584 1.05 1.05 0 00-.423-.408 1.232 1.232 0 00-.606-.149c-.224 0-.426.05-.606.149a1.05 1.05 0 00-.423.408 1.12 1.12 0 00-.154.584c0 .216.051.412.154.588.102.173.243.31.423.408.18.096.382.144.606.144zM134.327 37.29l-.688-.95a1.33 1.33 0 01-.13.005h-.76v.946h-.626v-3.245h1.386c.292 0 .545.047.76.14.218.092.385.225.5.398.116.173.173.378.173.616 0 .245-.062.455-.187.63a1.087 1.087 0 01-.529.395L135 37.29h-.673zm-.015-2.09c0-.207-.07-.366-.212-.477-.141-.111-.347-.167-.62-.167h-.731v1.293h.731c.273 0 .479-.055.62-.166.142-.115.212-.276.212-.483z" fill="#C09372"/></svg>
